<svg width="251" height="49" viewBox="0 0 251 49" fill="none" xmlns="http://www.w3.org/2000/svg">
<path d="M152.471 36.4931L152.46 36.409C152.459 36.3993 152.464 36.3906 152.462 36.3805C152.461 36.3675 152.453 36.3595 152.452 36.3463L148.467 7.34763C148.402 6.63807 148.204 6.00424 147.87 5.44877C147.536 4.89307 147.131 4.42275 146.655 4.03573C146.178 3.64984 145.661 3.34911 145.105 3.13305C144.548 2.91681 144 2.77791 143.46 2.71624C142.888 2.68549 142.275 2.71624 141.624 2.80866C140.972 2.90084 140.344 3.09438 139.741 3.38689C139.137 3.68149 138.604 4.08239 138.143 4.59138C137.682 5.10138 137.341 5.74224 137.118 6.51395L131.35 27.7284L125.58 6.51395C125.357 5.74224 125.008 5.10138 124.531 4.59138C124.054 4.08239 123.522 3.68149 122.933 3.38689C122.345 3.09438 121.726 2.90084 121.075 2.80866C120.423 2.71624 119.811 2.68549 119.238 2.71624C118.697 2.77791 118.15 2.91681 117.593 3.13305C117.036 3.34911 116.521 3.64984 116.044 4.03573C115.567 4.42275 115.162 4.89307 114.828 5.44877C114.494 6.00424 114.295 6.63807 114.232 7.34763L110.227 36.4458L110.245 36.4465C110.163 37.6325 112.324 38.498 114.737 38.498C117.214 38.498 119.106 37.8856 119.234 36.8565L119.238 36.8567L121.431 19.2519L126.247 36.1584C126.374 36.56 126.62 36.8992 126.986 37.1769C127.352 37.4549 127.789 37.686 128.298 37.8715C128.806 38.0569 129.331 38.1959 129.871 38.2881C130.411 38.3815 130.904 38.4272 131.35 38.4272C131.794 38.4272 132.286 38.3815 132.827 38.2881C133.368 38.1959 133.892 38.0569 134.4 37.8715C134.91 37.686 135.346 37.4549 135.712 37.1769C136.077 36.8992 136.324 36.56 136.451 36.1584L141.315 19.1128L143.452 36.8328C143.453 36.8546 143.443 36.8718 143.445 36.8943C143.532 37.7916 145.452 38.498 147.946 38.498C150.361 38.498 152.476 37.6808 152.452 36.4941L152.471 36.4931Z" fill="#C5C5C5"/>
<path d="M97.5983 39.6045C96.1361 42.8775 94.1737 45.1939 91.7104 46.5533C89.2471 47.9114 86.3461 48.3588 83.0085 47.8955C82.3089 47.8033 81.7048 47.6098 81.1968 47.317C80.6881 47.0236 80.2672 46.6605 79.9333 46.2289C79.6 45.7951 79.3682 45.3328 79.2415 44.8388C79.1148 44.3448 79.083 43.8348 79.1461 43.3101C79.3052 42.2604 79.7742 41.3882 80.553 40.6939C81.3319 39.9984 82.4362 39.7741 83.8666 40.0221C84.852 40.2067 85.7894 40.1612 86.6806 39.8832C87.5693 39.6045 88.2065 39.1115 88.5872 38.4012V38.3543L78.8608 17.3258C78.5419 16.647 78.3912 15.9822 78.4074 15.3338C78.423 14.6857 78.5582 14.0834 78.8128 13.5279C79.0668 12.9717 79.4241 12.4852 79.8853 12.0688C80.3459 11.6518 80.8941 11.3356 81.5301 11.1191C82.1342 10.903 82.7701 10.7801 83.4385 10.7482C84.105 10.7184 84.7325 10.8026 85.321 11.0032C85.9083 11.2047 86.441 11.5289 86.9184 11.9762C87.3958 12.4236 87.7765 13.0179 88.0623 13.7592L93.5455 28.1645L98.6006 13.7592C98.8546 13.0179 99.2197 12.4236 99.6965 11.9762C100.174 11.5289 100.706 11.2047 101.294 11.0032C101.882 10.8026 102.494 10.7184 103.13 10.7482C103.766 10.7801 104.4 10.903 105.037 11.1191C105.64 11.3356 106.174 11.6518 106.635 12.0688C107.095 12.4852 107.445 12.9717 107.683 13.5279C107.922 14.0834 108.041 14.6857 108.041 15.3338C108.041 15.9822 107.898 16.647 107.612 17.3258L97.5983 39.6045Z" fill="#C5C5C5"/>
<path d="M169.723 18.2063C169.181 18.2063 168.665 18.2759 168.173 18.4148C167.68 18.5534 167.243 18.7856 166.862 19.1091C166.481 19.4338 166.162 19.8504 165.908 20.3603C165.653 20.8691 165.526 21.5112 165.526 22.282H173.584C173.616 21.5112 173.528 20.8691 173.322 20.3603C173.115 19.8504 172.837 19.4338 172.488 19.1091C172.137 18.7856 171.716 18.5534 171.225 18.4148C170.73 18.2759 170.231 18.2063 169.723 18.2063ZM170.771 40.4395C169.055 40.4395 167.322 40.2232 165.574 39.7904C163.826 39.3588 162.244 38.6487 160.83 37.6604C159.415 36.6724 158.271 35.352 157.397 33.7002C156.523 32.0481 156.086 30.0172 156.086 27.6086V23.5329C156.086 21.0624 156.506 19.0101 157.349 17.3731C158.191 15.736 159.272 14.4245 160.592 13.4355C161.91 12.447 163.372 11.7447 164.979 11.3282C166.583 10.9113 168.149 10.7032 169.675 10.7032C171.327 10.7032 172.941 10.8956 174.515 11.2814C176.088 11.6683 177.494 12.4016 178.734 13.482C179.973 14.5634 180.967 16.0681 181.714 17.9982C182.46 19.9276 182.834 22.4208 182.834 25.4784C182.834 25.8803 182.81 26.3585 182.763 26.9142C182.715 27.4695 182.659 27.9487 182.596 28.3496H165.526V28.396C165.526 29.1999 165.701 29.8633 166.051 30.3885C166.4 30.9132 166.846 31.3458 167.386 31.6852C167.926 32.0254 168.514 32.2644 169.15 32.4033C169.785 32.5421 170.389 32.6118 170.962 32.6118C172.137 32.6118 173.043 32.5651 173.68 32.4727C174.315 32.3793 174.951 32.2259 175.587 32.0094C175.936 31.8865 176.295 31.7547 176.659 31.6155C177.024 31.4767 177.415 31.3768 177.828 31.3141C178.655 31.222 179.408 31.3141 180.093 31.5928C180.776 31.8707 181.276 32.3648 181.595 33.0748C182.103 34.2167 182.111 35.2596 181.619 36.2012C181.125 37.1435 180.307 37.9382 179.163 38.5863C178.781 38.8024 178.297 39.0196 177.709 39.2351C177.12 39.4502 176.453 39.6518 175.706 39.8371C174.959 40.0226 174.165 40.1683 173.322 40.2767C172.48 40.3848 171.629 40.4395 170.771 40.4395Z" fill="#C5C5C5"/>
<path d="M188.742 40.0918V15.7742C188.742 15.0033 188.877 14.3318 189.147 13.7595C189.417 13.189 189.775 12.7107 190.221 12.3238C190.665 11.9378 191.174 11.6453 191.747 11.4437C192.318 11.2434 192.922 11.1432 193.558 11.1432C194.48 11.1432 195.345 11.3593 196.156 11.7911C196.967 12.2237 197.579 12.8725 197.992 13.7367C198.882 12.9338 199.868 12.3011 200.948 11.8376C202.028 11.3746 203.157 11.1432 204.334 11.1432C204.683 11.1432 205.056 11.166 205.454 11.2127C205.851 11.2582 206.223 11.3593 206.574 11.5132C207.496 11.8843 208.188 12.5021 208.648 13.3665C209.109 14.2307 209.26 15.2039 209.102 16.2844C208.943 17.3657 208.474 18.2299 207.695 18.8776C206.916 19.5264 206.002 19.8508 204.953 19.8508C204.603 19.8508 204.238 19.844 203.857 19.8271C203.475 19.8124 203.11 19.82 202.76 19.8508C201.425 19.9432 200.384 20.3303 199.638 21.0086C198.889 21.6885 198.485 22.615 198.421 23.7874V40.0918H188.742Z" fill="#C5C5C5"/>
<path d="M220.58 27.6553C220.58 28.6442 220.723 29.4549 221.008 30.0868C221.295 30.7207 221.66 31.2149 222.106 31.5689C222.551 31.924 223.051 32.171 223.608 32.3104C224.163 32.449 224.712 32.5184 225.253 32.5184C226.047 32.5184 226.722 32.4652 227.279 32.3566C227.834 32.2484 228.431 32.0552 229.067 31.7772C229.416 31.6235 229.782 31.4459 230.164 31.2447C230.544 31.0441 230.958 30.9132 231.403 30.8518C232.102 30.7286 232.778 30.7903 233.43 31.0362C234.08 31.2844 234.613 31.7317 235.027 32.3793C235.345 32.9055 235.528 33.453 235.575 34.0244C235.623 34.5958 235.543 35.1515 235.336 35.6912C235.13 36.2317 234.82 36.7339 234.407 37.1972C233.994 37.6604 233.501 38.0613 232.928 38.4017C232.039 38.9264 230.942 39.3968 229.639 39.8146C228.336 40.2311 226.874 40.4395 225.253 40.4395C223.536 40.4395 221.811 40.2379 220.079 39.8371C218.347 39.4352 216.789 38.7412 215.406 37.7529C214.025 36.7648 212.903 35.4529 212.045 33.8163C211.187 32.1792 210.758 30.1105 210.758 27.6086V23.5329C210.758 21.0943 211.187 19.0556 212.045 17.4188C212.903 15.7826 214.007 14.47 215.358 13.482C216.709 12.494 218.227 11.7835 219.912 11.3509C221.597 10.9193 223.266 10.7032 224.918 10.7032C226.635 10.7032 228.113 10.8876 229.353 11.2587C230.592 11.6286 231.594 12.0464 232.357 12.5085C232.928 12.8491 233.421 13.2427 233.835 13.6902C234.247 14.1376 234.558 14.6246 234.765 15.1498C234.971 15.6745 235.067 16.2073 235.051 16.747C235.034 17.2877 234.867 17.8204 234.55 18.3454C234.104 19.1171 233.541 19.6121 232.858 19.8276C232.174 20.0436 231.451 20.1051 230.689 20.0131C230.242 19.9512 229.838 19.8433 229.472 19.6885C229.106 19.5349 228.749 19.38 228.4 19.2252C227.923 19.0101 227.461 18.8553 227.016 18.762C226.571 18.6695 225.983 18.6228 225.253 18.6228C224.712 18.6228 224.171 18.6925 223.632 18.8314C223.09 18.9705 222.59 19.2182 222.13 19.5724C221.668 19.9276 221.295 20.4227 221.008 21.0546C220.723 21.6885 220.58 22.4994 220.58 23.4864V27.6553Z" fill="#C5C5C5"/>
<path d="M240.829 15.6572C240.829 14.0517 241.313 12.8784 242.283 12.1372C243.253 11.3962 244.406 11.0248 245.74 11.0248C247.076 11.0248 248.227 11.3962 249.197 12.1372C250.167 12.8784 250.652 14.0517 250.652 15.6572V39.6504H240.829V15.6572ZM240.781 4.77282C240.781 3.26009 241.275 2.17143 242.26 1.50686C243.245 0.84306 244.406 0.510623 245.74 0.510623C247.076 0.510623 248.235 0.84306 249.221 1.50686C250.207 2.17143 250.7 3.26009 250.7 4.77282C250.7 5.54477 250.563 6.2016 250.294 6.74109C250.024 7.28178 249.666 7.72135 249.221 8.06058C248.776 8.40094 248.252 8.64793 247.648 8.80184C247.044 8.95755 246.407 9.03406 245.74 9.03406C245.074 9.03406 244.437 8.95755 243.833 8.80184C243.23 8.64793 242.705 8.40094 242.26 8.06058C241.814 7.72135 241.457 7.28178 241.187 6.74109C240.916 6.2016 240.781 5.54477 240.781 4.77282Z" fill="#C5C5C5"/>
<path d="M77.3072 36.0495L77.2958 35.9654C77.2946 35.9557 77.2994 35.9468 77.2982 35.937C77.2964 35.9238 77.2892 35.9159 77.2868 35.9027L73.3019 6.90403C73.2376 6.19466 73.04 5.56058 72.7056 5.00512C72.3723 4.44947 71.9669 3.97916 71.4901 3.59255C71.0133 3.20667 70.4963 2.90575 69.9409 2.68945C69.3842 2.47315 68.8353 2.33432 68.2961 2.27265C67.7232 2.24214 67.1113 2.27264 66.4597 2.36506C65.8076 2.45748 65.1801 2.65096 64.5765 2.94346C63.9724 3.23837 63.4398 3.63897 62.9792 4.14778C62.518 4.65773 62.1769 5.29859 61.9541 6.07083L56.1855 27.2848L50.4152 6.07083C50.1929 5.29859 49.8438 4.65773 49.3667 4.14778C48.8893 3.63897 48.3578 3.23837 47.7693 2.94346C47.181 2.65096 46.561 2.45748 45.9101 2.36506C45.2582 2.27264 44.6462 2.24214 44.0736 2.27265C43.5329 2.33432 42.9854 2.47315 42.4285 2.68945C41.8722 2.90575 41.3563 3.20667 40.879 3.59255C40.4028 3.97916 39.997 4.44947 39.6636 5.00512C39.3294 5.56058 39.1309 6.19466 39.0676 6.90403L35.0625 36.0019L35.0811 36.0029C34.9982 37.1891 37.1598 38.0547 39.5724 38.0547C42.0497 38.0547 43.9413 37.4424 44.0692 36.4129L44.0736 36.4134L46.2671 18.8083L51.0828 35.7146C51.2098 36.1164 51.456 36.4556 51.8217 36.7336C52.1872 37.0113 52.6247 37.2423 53.1335 37.4279C53.6416 37.6134 54.1663 37.7526 54.707 37.8448C55.2467 37.9378 55.74 37.9836 56.1855 37.9836C56.6295 37.9836 57.1219 37.9378 57.6626 37.8448C58.2033 37.7526 58.7282 37.6134 59.2361 37.4279C59.7451 37.2423 60.1814 37.0113 60.5476 36.7336C60.9129 36.4556 61.1597 36.1164 61.287 35.7146L66.1499 18.6692L68.2877 36.3892C68.2889 36.4115 68.2787 36.4282 68.2805 36.4509C68.3675 37.3481 70.2873 38.0547 72.7812 38.0547C75.1971 38.0547 77.312 37.2372 77.288 36.0505L77.3072 36.0495Z" fill="#C5C5C5"/>
<path d="M15.8099 4.54367C13.1147 4.54367 10.9297 6.72867 10.9297 9.42415C10.9297 11.1525 11.6205 12.8322 12.5072 14.2833C13.8403 16.4643 15.6525 17.5952 15.7959 17.6827V17.6855C15.8019 17.6879 15.8097 17.6912 15.8099 17.6912V17.6914L15.8102 17.6912C15.8102 17.6912 15.8179 17.6879 15.824 17.6855V17.6827C15.9678 17.5952 17.7801 16.4643 19.1127 14.2833C19.9994 12.8322 20.6902 11.1525 20.6902 9.42415C20.6902 6.72867 18.5052 4.54367 15.8099 4.54367Z" fill="#C5C5C5"/>
<path d="M15.8099 34.7793C18.5052 34.7793 20.6902 32.5945 20.6902 29.8992C20.6902 28.1707 19.9994 26.4912 19.1127 25.0397C17.7801 22.8591 15.9678 21.7279 15.824 21.6405V21.6376C15.8179 21.6353 15.8102 21.6322 15.8102 21.632H15.8099C15.8097 21.6322 15.8019 21.6353 15.7959 21.6376V21.6405C15.6525 21.7279 13.8403 22.8591 12.5072 25.0397C11.6205 26.4912 10.9297 28.1707 10.9297 29.8992C10.9297 32.5945 13.1147 34.7793 15.8099 34.7793Z" fill="#C5C5C5"/>
<path d="M30.9285 19.6627V19.6623C30.9285 16.967 28.7433 14.782 26.048 14.782C24.3195 14.782 22.6399 15.4728 21.1889 16.36C19.0081 17.6925 17.877 19.5049 17.7895 19.6486H17.7867C17.7841 19.6547 17.7812 19.6623 17.7812 19.6623V19.6627C17.7812 19.6627 17.7841 19.6705 17.7867 19.6765H17.7895C17.877 19.8201 19.0081 21.6324 21.1889 22.965C22.6399 23.8521 24.3195 24.543 26.048 24.543C28.7433 24.543 30.9285 22.358 30.9285 19.6627Z" fill="#C5C5C5"/>
<path d="M0.695312 19.6623V19.6627C0.695312 22.358 2.88011 24.543 5.57558 24.543C7.30392 24.543 8.98365 23.8521 10.4348 22.965C12.6158 21.6324 13.7469 19.8201 13.8344 19.6765H13.8372C13.8396 19.6705 13.8428 19.6627 13.8428 19.6627V19.6623C13.8428 19.6623 13.8396 19.6547 13.8372 19.6486H13.8344C13.7469 19.5049 12.6158 17.6925 10.4348 16.36C8.98365 15.4728 7.30392 14.782 5.57558 14.782C2.88011 14.782 0.695312 16.967 0.695312 19.6623Z" fill="#C5C5C5"/>
</svg>
