<svg width="251" height="49" viewBox="0 0 251 49" fill="none" xmlns="http://www.w3.org/2000/svg">
<path d="M152.409 36.4931L152.398 36.409C152.396 36.3993 152.402 36.3906 152.4 36.3805C152.398 36.3675 152.391 36.3595 152.389 36.3463L148.404 7.34763C148.339 6.63807 148.142 6.00424 147.808 5.44877C147.474 4.89307 147.069 4.42275 146.592 4.03573C146.115 3.64984 145.599 3.34911 145.043 3.13305C144.486 2.91681 143.938 2.77791 143.398 2.71624C142.825 2.68549 142.213 2.71624 141.561 2.80866C140.909 2.90084 140.281 3.09438 139.678 3.38689C139.074 3.68149 138.541 4.08239 138.081 4.59138C137.62 5.10138 137.278 5.74224 137.056 6.51395L131.287 27.7284L125.517 6.51395C125.295 5.74224 124.945 5.10138 124.468 4.59138C123.991 4.08239 123.459 3.68149 122.871 3.38689C122.283 3.09438 121.663 2.90084 121.012 2.80866C120.36 2.71624 119.748 2.68549 119.175 2.71624C118.635 2.77791 118.087 2.91681 117.53 3.13305C116.974 3.34911 116.459 3.64984 115.981 4.03573C115.505 4.42275 115.099 4.89307 114.766 5.44877C114.431 6.00424 114.232 6.63807 114.169 7.34763L110.164 36.4458L110.183 36.4465C110.1 37.6325 112.262 38.498 114.674 38.498C117.152 38.498 119.043 37.8856 119.171 36.8565L119.175 36.8567L121.369 19.2519L126.185 36.1584C126.312 36.56 126.558 36.8992 126.924 37.1769C127.289 37.4549 127.726 37.686 128.235 37.8715C128.744 38.0569 129.269 38.1959 129.809 38.2881C130.348 38.3815 130.842 38.4272 131.287 38.4272C131.731 38.4272 132.224 38.3815 132.765 38.2881C133.305 38.1959 133.83 38.0569 134.338 37.8715C134.847 37.686 135.283 37.4549 135.649 37.1769C136.015 36.8992 136.261 36.56 136.389 36.1584L141.252 19.1128L143.389 36.8328C143.391 36.8546 143.38 36.8718 143.382 36.8943C143.469 37.7916 145.389 38.498 147.884 38.498C150.299 38.498 152.414 37.6808 152.389 36.4941L152.409 36.4931Z" fill="white"/>
<path d="M97.5358 39.6045C96.0736 42.8775 94.1112 45.1939 91.6479 46.5533C89.1846 47.9114 86.2836 48.3588 82.946 47.8955C82.2464 47.8033 81.6423 47.6098 81.1343 47.317C80.6256 47.0236 80.2047 46.6605 79.8708 46.2289C79.5375 45.7951 79.3057 45.3328 79.179 44.8388C79.0523 44.3448 79.0205 43.8348 79.0836 43.3101C79.2427 42.2604 79.7117 41.3882 80.4905 40.6939C81.2694 39.9984 82.3737 39.7741 83.8041 40.0221C84.7895 40.2067 85.7269 40.1612 86.6181 39.8832C87.5068 39.6045 88.144 39.1115 88.5247 38.4012V38.3543L78.7983 17.3258C78.4794 16.647 78.3287 15.9822 78.3449 15.3338C78.3605 14.6857 78.4957 14.0834 78.7503 13.5279C79.0043 12.9717 79.3616 12.4852 79.8228 12.0688C80.2834 11.6518 80.8316 11.3356 81.4676 11.1191C82.0717 10.903 82.7076 10.7801 83.376 10.7482C84.0425 10.7184 84.67 10.8026 85.2585 11.0032C85.8458 11.2047 86.3785 11.5289 86.8559 11.9762C87.3333 12.4236 87.714 13.0179 87.9998 13.7592L93.483 28.1645L98.5381 13.7592C98.7921 13.0179 99.1572 12.4236 99.634 11.9762C100.111 11.5289 100.643 11.2047 101.231 11.0032C101.82 10.8026 102.431 10.7184 103.067 10.7482C103.703 10.7801 104.338 10.903 104.975 11.1191C105.578 11.3356 106.111 11.6518 106.572 12.0688C107.032 12.4852 107.382 12.9717 107.621 13.5279C107.859 14.0834 107.979 14.6857 107.979 15.3338C107.979 15.9822 107.835 16.647 107.549 17.3258L97.5358 39.6045Z" fill="white"/>
<path d="M169.66 18.2063C169.119 18.2063 168.602 18.2759 168.11 18.4148C167.617 18.5534 167.181 18.7856 166.799 19.1091C166.418 19.4338 166.099 19.8504 165.846 20.3603C165.591 20.8691 165.463 21.5112 165.463 22.282H173.522C173.553 21.5112 173.466 20.8691 173.259 20.3603C173.053 19.8504 172.775 19.4338 172.425 19.1091C172.075 18.7856 171.654 18.5534 171.162 18.4148C170.668 18.2759 170.168 18.2063 169.66 18.2063ZM170.709 40.4395C168.993 40.4395 167.259 40.2232 165.511 39.7904C163.763 39.3588 162.182 38.6487 160.767 37.6604C159.352 36.6724 158.209 35.352 157.334 33.7002C156.46 32.0481 156.023 30.0172 156.023 27.6086V23.5329C156.023 21.0624 156.444 19.0101 157.287 17.3731C158.129 15.736 159.21 14.4245 160.529 13.4355C161.847 12.447 163.309 11.7447 164.916 11.3282C166.52 10.9113 168.086 10.7032 169.612 10.7032C171.264 10.7032 172.879 10.8956 174.452 11.2814C176.026 11.6683 177.431 12.4016 178.671 13.482C179.91 14.5634 180.904 16.0681 181.652 17.9982C182.398 19.9276 182.772 22.4208 182.772 25.4784C182.772 25.8803 182.748 26.3585 182.7 26.9142C182.653 27.4695 182.597 27.9487 182.534 28.3496H165.463V28.396C165.463 29.1999 165.638 29.8633 165.988 30.3885C166.338 30.9132 166.783 31.3458 167.324 31.6852C167.864 32.0254 168.451 32.2644 169.087 32.4033C169.723 32.5421 170.327 32.6118 170.899 32.6118C172.075 32.6118 172.98 32.5651 173.618 32.4727C174.253 32.3793 174.888 32.2259 175.525 32.0094C175.874 31.8865 176.232 31.7547 176.597 31.6155C176.962 31.4767 177.352 31.3768 177.765 31.3141C178.592 31.222 179.346 31.3141 180.031 31.5928C180.713 31.8707 181.214 32.3648 181.533 33.0748C182.04 34.2167 182.049 35.2596 181.556 36.2012C181.062 37.1435 180.245 37.9382 179.1 38.5863C178.719 38.8024 178.234 39.0196 177.647 39.2351C177.057 39.4502 176.391 39.6518 175.644 39.8371C174.897 40.0226 174.102 40.1683 173.259 40.2767C172.417 40.3848 171.567 40.4395 170.709 40.4395Z" fill="white"/>
<path d="M188.68 40.0918V15.7742C188.68 15.0033 188.815 14.3318 189.084 13.7595C189.354 13.189 189.713 12.7107 190.158 12.3238C190.603 11.9378 191.111 11.6453 191.684 11.4437C192.255 11.2434 192.859 11.1432 193.496 11.1432C194.417 11.1432 195.283 11.3593 196.094 11.7911C196.904 12.2237 197.516 12.8725 197.93 13.7367C198.819 12.9338 199.805 12.3011 200.886 11.8376C201.966 11.3746 203.095 11.1432 204.272 11.1432C204.621 11.1432 204.994 11.166 205.392 11.2127C205.788 11.2582 206.161 11.3593 206.512 11.5132C207.433 11.8843 208.125 12.5021 208.586 13.3665C209.046 14.2307 209.197 15.2039 209.039 16.2844C208.88 17.3657 208.411 18.2299 207.633 18.8776C206.853 19.5264 205.94 19.8508 204.89 19.8508C204.54 19.8508 204.176 19.844 203.794 19.8271C203.412 19.8124 203.047 19.82 202.698 19.8508C201.363 19.9432 200.321 20.3303 199.575 21.0086C198.827 21.6885 198.422 22.615 198.359 23.7874V40.0918H188.68Z" fill="white"/>
<path d="M220.518 27.6553C220.518 28.6442 220.661 29.4549 220.946 30.0868C221.233 30.7207 221.597 31.2149 222.044 31.5689C222.488 31.924 222.989 32.171 223.545 32.3104C224.101 32.449 224.649 32.5184 225.19 32.5184C225.984 32.5184 226.66 32.4652 227.216 32.3566C227.772 32.2484 228.368 32.0552 229.004 31.7772C229.354 31.6235 229.719 31.4459 230.101 31.2447C230.482 31.0441 230.895 30.9132 231.34 30.8518C232.04 30.7286 232.715 30.7903 233.367 31.0362C234.018 31.2844 234.551 31.7317 234.964 32.3793C235.282 32.9055 235.466 33.453 235.513 34.0244C235.56 34.5958 235.481 35.1515 235.274 35.6912C235.068 36.2317 234.757 36.7339 234.344 37.1972C233.931 37.6604 233.439 38.0613 232.866 38.4017C231.977 38.9264 230.879 39.3968 229.576 39.8146C228.273 40.2311 226.811 40.4395 225.19 40.4395C223.473 40.4395 221.748 40.2379 220.017 39.8371C218.284 39.4352 216.727 38.7412 215.344 37.7529C213.962 36.7648 212.84 35.4529 211.983 33.8163C211.124 32.1792 210.695 30.1105 210.695 27.6086V23.5329C210.695 21.0943 211.124 19.0556 211.983 17.4188C212.84 15.7826 213.945 14.47 215.296 13.482C216.647 12.494 218.164 11.7835 219.849 11.3509C221.534 10.9193 223.203 10.7032 224.856 10.7032C226.573 10.7032 228.05 10.8876 229.291 11.2587C230.529 11.6286 231.532 12.0464 232.295 12.5085C232.866 12.8491 233.359 13.2427 233.772 13.6902C234.185 14.1376 234.495 14.6246 234.703 15.1498C234.909 15.6745 235.004 16.2073 234.988 16.747C234.971 17.2877 234.805 17.8204 234.487 18.3454C234.042 19.1171 233.478 19.6121 232.795 19.8276C232.111 20.0436 231.388 20.1051 230.626 20.0131C230.179 19.9512 229.775 19.8433 229.409 19.6885C229.044 19.5349 228.686 19.38 228.338 19.2252C227.86 19.0101 227.399 18.8553 226.954 18.762C226.509 18.6695 225.92 18.6228 225.19 18.6228C224.649 18.6228 224.109 18.6925 223.57 18.8314C223.027 18.9705 222.528 19.2182 222.068 19.5724C221.606 19.9276 221.233 20.4227 220.946 21.0546C220.661 21.6885 220.518 22.4994 220.518 23.4864V27.6553Z" fill="white"/>
<path d="M240.766 15.6572C240.766 14.0517 241.251 12.8784 242.221 12.1372C243.19 11.3962 244.343 11.0248 245.678 11.0248C247.013 11.0248 248.165 11.3962 249.135 12.1372C250.104 12.8784 250.59 14.0517 250.59 15.6572V39.6504H240.766V15.6572ZM240.719 4.77282C240.719 3.26009 241.212 2.17143 242.197 1.50686C243.183 0.84306 244.343 0.510623 245.678 0.510623C247.013 0.510623 248.173 0.84306 249.159 1.50686C250.144 2.17143 250.637 3.26009 250.637 4.77282C250.637 5.54477 250.501 6.2016 250.231 6.74109C249.962 7.28178 249.603 7.72135 249.159 8.06058C248.714 8.40094 248.189 8.64793 247.586 8.80184C246.981 8.95755 246.345 9.03406 245.678 9.03406C245.011 9.03406 244.374 8.95755 243.771 8.80184C243.167 8.64793 242.642 8.40094 242.197 8.06058C241.752 7.72135 241.394 7.28178 241.125 6.74109C240.854 6.2016 240.719 5.54477 240.719 4.77282Z" fill="white"/>
<path d="M77.2447 36.0495L77.2333 35.9654C77.2321 35.9557 77.2369 35.9468 77.2357 35.937C77.2339 35.9238 77.2267 35.9159 77.2243 35.9027L73.2394 6.90403C73.1751 6.19466 72.9775 5.56058 72.6431 5.00512C72.3098 4.44947 71.9044 3.97916 71.4276 3.59255C70.9508 3.20667 70.4338 2.90575 69.8784 2.68945C69.3217 2.47315 68.7728 2.33432 68.2336 2.27265C67.6607 2.24214 67.0488 2.27264 66.3972 2.36506C65.7451 2.45748 65.1176 2.65096 64.514 2.94346C63.9099 3.23837 63.3773 3.63897 62.9167 4.14778C62.4555 4.65773 62.1144 5.29859 61.8916 6.07083L56.123 27.2848L50.3527 6.07083C50.1304 5.29859 49.7813 4.65773 49.3042 4.14778C48.8268 3.63897 48.2953 3.23837 47.7068 2.94346C47.1185 2.65096 46.4985 2.45748 45.8476 2.36506C45.1957 2.27264 44.5837 2.24214 44.0111 2.27265C43.4704 2.33432 42.9229 2.47315 42.366 2.68945C41.8097 2.90575 41.2938 3.20667 40.8165 3.59255C40.3403 3.97916 39.9345 4.44947 39.6011 5.00512C39.2669 5.56058 39.0684 6.19466 39.0051 6.90403L35 36.0019L35.0186 36.0029C34.9357 37.1891 37.0973 38.0547 39.5099 38.0547C41.9872 38.0547 43.8788 37.4424 44.0067 36.4129L44.0111 36.4134L46.2046 18.8083L51.0203 35.7146C51.1473 36.1164 51.3935 36.4556 51.7592 36.7336C52.1247 37.0113 52.5622 37.2423 53.071 37.4279C53.5791 37.6134 54.1038 37.7526 54.6445 37.8448C55.1842 37.9378 55.6775 37.9836 56.123 37.9836C56.567 37.9836 57.0594 37.9378 57.6001 37.8448C58.1408 37.7526 58.6657 37.6134 59.1736 37.4279C59.6826 37.2423 60.1189 37.0113 60.4851 36.7336C60.8504 36.4556 61.0972 36.1164 61.2245 35.7146L66.0874 18.6692L68.2252 36.3892C68.2264 36.4115 68.2162 36.4282 68.218 36.4509C68.305 37.3481 70.2248 38.0547 72.7187 38.0547C75.1346 38.0547 77.2495 37.2372 77.2255 36.0505L77.2447 36.0495Z" fill="white"/>
<path d="M15.7474 4.54367C13.0522 4.54367 10.8672 6.72867 10.8672 9.42415C10.8672 11.1525 11.558 12.8322 12.4447 14.2833C13.7778 16.4643 15.59 17.5952 15.7334 17.6827V17.6855C15.7394 17.6879 15.7472 17.6912 15.7474 17.6912V17.6914L15.7477 17.6912C15.7477 17.6912 15.7554 17.6879 15.7615 17.6855V17.6827C15.9053 17.5952 17.7176 16.4643 19.0502 14.2833C19.9369 12.8322 20.6277 11.1525 20.6277 9.42415C20.6277 6.72867 18.4427 4.54367 15.7474 4.54367Z" fill="white"/>
<path d="M15.7474 34.7793C18.4427 34.7793 20.6277 32.5945 20.6277 29.8992C20.6277 28.1707 19.9369 26.4912 19.0502 25.0397C17.7176 22.8591 15.9053 21.7279 15.7615 21.6405V21.6376C15.7554 21.6353 15.7477 21.6322 15.7477 21.632H15.7474C15.7472 21.6322 15.7394 21.6353 15.7334 21.6376V21.6405C15.59 21.7279 13.7778 22.8591 12.4447 25.0397C11.558 26.4912 10.8672 28.1707 10.8672 29.8992C10.8672 32.5945 13.0522 34.7793 15.7474 34.7793Z" fill="white"/>
<path d="M30.866 19.6627V19.6623C30.866 16.967 28.6808 14.782 25.9855 14.782C24.257 14.782 22.5774 15.4728 21.1264 16.36C18.9456 17.6925 17.8145 19.5049 17.727 19.6486H17.7242C17.7216 19.6547 17.7188 19.6623 17.7188 19.6623V19.6627C17.7188 19.6627 17.7216 19.6705 17.7242 19.6765H17.727C17.8145 19.8201 18.9456 21.6324 21.1264 22.965C22.5774 23.8521 24.257 24.543 25.9855 24.543C28.6808 24.543 30.866 22.358 30.866 19.6627Z" fill="white"/>
<path d="M0.632812 19.6623V19.6627C0.632812 22.358 2.81761 24.543 5.51308 24.543C7.24142 24.543 8.92115 23.8521 10.3723 22.965C12.5533 21.6324 13.6844 19.8201 13.7719 19.6765H13.7747C13.7771 19.6705 13.7803 19.6627 13.7803 19.6627V19.6623C13.7803 19.6623 13.7771 19.6547 13.7747 19.6486H13.7719C13.6844 19.5049 12.5533 17.6925 10.3723 16.36C8.92115 15.4728 7.24142 14.782 5.51308 14.782C2.81761 14.782 0.632812 16.967 0.632812 19.6623Z" fill="white"/>
</svg>
